<?xml version="1.0" encoding="UTF-8" standalone="no"?>
<svg width="150px" height="150px" viewBox="0 0 250 250" version="1.1" xmlns="http://www.w3.org/2000/svg" xmlns:xlink="http://www.w3.org/1999/xlink">
    <g id="Page-1" stroke="none" stroke-width="1" fill="none" fill-rule="evenodd">
        <g transform="translate(-350, -218)">
            <g transform="translate(475, 343) scale(-1, 1) translate(-475, -343) translate(371, 236)">
                <path d="M104,214 C161.437614,214 208,167.437614 208,110 C208,52.562386 161.437614,6 104,6 C46.562386,6 0,52.562386 0,110 C0,167.437614 46.562386,214 104,214 L104,214 Z M104,206 C50.980664,206 8,163.019336 8,110 C8,56.980664 50.980664,14 104,14 C157.019336,14 200,56.980664 200,110 C200,163.019336 157.019336,206 104,206 L104,206 Z" id="Oval-48" fill="#7649BB"></path>
                <circle id="Oval-49" fill="#7649BB" cx="104" cy="10" r="10"></circle>
                <path d="M55.1335137,158.391919 C82.0796898,185.338095 125.768073,185.338095 152.714249,158.391919 C179.660426,131.445743 179.660426,87.7573593 152.714249,60.8111832 C125.768073,33.8650071 82.0796898,33.8650071 55.1335137,60.8111832 C28.1873375,87.7573593 28.1873375,131.445743 55.1335137,158.391919 L55.1335137,158.391919 Z M60.7903679,152.735065 C36.9683861,128.913083 36.9683861,90.2900192 60.7903679,66.4680374 C84.6123497,42.6460556 123.235413,42.6460556 147.057395,66.4680374 C170.879377,90.2900192 170.879377,128.913083 147.057395,152.735065 C123.235413,176.557047 84.6123497,176.557047 60.7903679,152.735065 L60.7903679,152.735065 Z" id="Oval-48" fill="#7649BB"></path>
                <path d="M142.814755,70.7106781 C146.719997,74.615921 153.051647,74.615921 156.95689,70.7106781 C160.862133,66.8054352 160.862133,60.4737854 156.95689,56.5685425 C153.051647,52.6632996 146.719997,52.6632996 142.814755,56.5685425 C138.909512,60.4737854 138.909512,66.8054352 142.814755,70.7106781 L142.814755,70.7106781 Z" id="Oval-49" fill="#7649BB"></path>
                <path d="M70.2609307,109.557395 C70.2609307,128.335077 85.4832492,143.557395 104.260931,143.557395 C123.038612,143.557395 138.260931,128.335077 138.260931,109.557395 C138.260931,90.7797137 123.038612,75.5573952 104.260931,75.5573952 C85.4832492,75.5573952 70.2609307,90.7797137 70.2609307,109.557395 L70.2609307,109.557395 Z M78.2609307,109.557395 C78.2609307,95.1979917 89.9015272,83.5573952 104.260931,83.5573952 C118.620334,83.5573952 130.260931,95.1979917 130.260931,109.557395 C130.260931,123.916799 118.620334,135.557395 104.260931,135.557395 C89.9015272,135.557395 78.2609307,123.916799 78.2609307,109.557395 L78.2609307,109.557395 Z" id="Oval-48" fill="#CACACA"></path>
                <path d="M123.909163,109.909163 C123.909163,115.43201 128.386315,119.909163 133.909163,119.909163 C139.43201,119.909163 143.909163,115.43201 143.909163,109.909163 C143.909163,104.386315 139.43201,99.9091629 133.909163,99.9091629 C128.386315,99.9091629 123.909163,104.386315 123.909163,109.909163 L123.909163,109.909163 Z" id="Oval-49" fill="#CACACA"></path>
            </g>
        </g>
    </g>
</svg>
